<svg viewBox="0 0 128 128" xmlns="http://www.w3.org/2000/svg">
  <defs></defs>
  <g id="surface1" transform="matrix(1, 0, 0, 1, -52.077837, -118.68818)">
    <path style="fill-rule: nonzero; fill: rgb(141, 141, 141); fill-opacity: 1; stroke-width: 3px; stroke: rgba(120, 199, 255, 0.47);" d="M 52.322 246.825 L 180.322 246.486 L 161.616 146.825 L 68.57 147.65 L 52.322 246.825 Z M 52.322 246.825"></path>
    <path style="fill-rule: nonzero; fill-opacity: 1; stroke: rgba(120, 199, 255, 0.47); fill: rgba(146, 208, 255, 0.56);" d="M 134.139 176.392 Z M 105.59 176.281 C 105.59 176.281 100.237 197.785 121.688 197.974 C 128.418 195.24 133.377 188.54 134.129 180.466 C 134.182 179.907 134.197 179.336 134.208 178.766 C 134.21 178.616 134.229 178.47 134.229 178.32 C 134.229 177.67 134.193 177.029 134.14 176.392 C 128.471 200.723 103.402 191.194 105.59 176.281 Z M 105.59 176.281"></path>
    <path style="fill-rule: nonzero; fill-opacity: 1; stroke: rgba(120, 199, 255, 0.47); fill: rgba(146, 208, 255, 0.56);" d="M 116.68 168.298 C 116.68 168.298 96.708 162.214 97.016 185.967 C 98.04 188.837 99.628 191.428 101.671 193.555 C 101.756 193.643 101.844 193.725 101.93 193.813 C 102.509 194.395 103.118 194.935 103.755 195.436 C 103.855 195.511 103.949 195.599 104.048 195.674 C 104.723 196.175 105.426 196.633 106.155 197.038 C 106.366 197.155 106.582 197.266 106.798 197.377 C 107.426 197.697 108.067 197.982 108.722 198.227 C 108.884 198.286 109.036 198.361 109.2 198.417 C 109.983 198.68 110.786 198.885 111.594 199.038 C 111.84 199.083 112.086 199.122 112.336 199.159 C 113.175 199.291 114.022 199.361 114.872 199.374 C 114.904 199.374 114.936 199.38 114.967 199.38 C 115.608 199.38 116.24 199.341 116.864 199.276 C 94.454 193.449 102.972 166.117 116.68 168.3 L 116.68 168.298 Z M 116.68 168.298"></path>
    <path style="fill-rule: nonzero; fill-opacity: 1; stroke: rgba(120, 199, 255, 0.47); fill: rgba(146, 208, 255, 0.56);" d="M 124.464 179.561 C 124.464 179.561 129.19 157.837 107.922 158.806 C 100.79 161.88 95.74 169.448 95.74 178.318 C 95.746 179.272 95.813 180.226 95.937 181.172 C 100.412 156.592 125.915 164.552 124.464 179.561 Z M 124.464 179.561"></path>
    <path style="fill-rule: nonzero; fill-opacity: 1; stroke: rgba(120, 199, 255, 0.47); fill: rgba(146, 208, 255, 0.56);" d="M 114.253 188.912 C 114.253 188.912 134.259 191.76 133.007 171.012 C 130.284 163.028 123.253 157.329 114.984 157.329 C 113.814 157.333 112.645 157.455 111.494 157.69 C 133.787 160.674 127.993 189.122 114.253 188.912 Z M 114.253 188.912"></path>
    <path style="fill-rule: nonzero; fill-opacity: 1; stroke: rgba(120, 199, 255, 0.47); fill: rgba(146, 208, 255, 0.56);" d="M 120.538 178.32 C 120.536 182.845 116.044 185.675 112.451 183.411 C 110.784 182.361 109.756 180.42 109.758 178.32 C 109.758 173.794 114.25 170.966 117.843 173.228 C 119.51 174.279 120.538 176.22 120.538 178.32 Z M 120.538 178.32"></path>
    <path style=" stroke:none;fill-rule:nonzero;fill:rgb(40.392157%,40.392157%,40.392157%);fill-opacity:1;" d="M 96.306 245.108 L 103.359 208.038 L 128.629 207.954 L 136.451 244.954 L 96.306 245.108 Z M 96.306 245.108"></path>
    <path style=" stroke:none;fill-rule:nonzero;fill:rgb(0%,0%,0%);fill-opacity:0.109804;" d="M 96.971 244.564 L 103.38 208.317 L 128.432 207.792 L 106.845 212.469 L 96.971 244.564 Z M 96.971 244.564"></path>
    <path style=" stroke:none;fill-rule:nonzero;fill:rgb(86.666667%,74.509804%,14.509804%);fill-opacity:1;" d="M 111.869 217.798 L 115.378 217.798 C 116.015 217.798 116.532 218.362 116.532 219.06 L 116.532 223.283 C 116.532 223.98 116.015 224.544 115.378 224.544 L 111.869 224.544 C 111.232 224.544 110.715 223.98 110.715 223.283 L 110.715 219.06 C 110.715 218.362 111.232 217.798 111.869 217.798 Z M 111.869 217.798"></path>
    <path style=" stroke:none;fill-rule:nonzero;fill:rgb(86.666667%,74.509804%,14.509804%);fill-opacity:1;" d="M 119.373 225.011 L 122.882 225.011 C 123.519 225.011 124.036 225.575 124.036 226.271 L 124.036 230.494 C 124.036 231.192 123.519 231.758 122.882 231.758 L 119.373 231.758 C 118.734 231.758 118.217 231.192 118.217 230.494 L 118.217 226.271 C 118.217 225.575 118.734 225.011 119.373 225.011 Z M 119.373 225.011"></path>
    <path style=" stroke:none;fill-rule:nonzero;fill:rgb(86.666667%,74.509804%,14.509804%);fill-opacity:1;" d="M 111.809 231.826 L 115.317 231.826 C 115.955 231.826 116.471 232.39 116.471 233.088 L 116.471 237.312 C 116.471 238.008 115.955 238.572 115.317 238.572 L 111.809 238.572 C 111.172 238.572 110.653 238.008 110.653 237.312 L 110.653 233.088 C 110.653 232.39 111.172 231.826 111.809 231.826 Z M 111.809 231.826"></path>
  </g>
</svg>