<svg viewBox="0 0 500 150" preserveAspectRatio="none" xmlns="http://www.w3.org/2000/svg">
  <defs></defs>
  <path style="fill: none; stroke: rgb(119, 210, 255); stroke-linejoin: round; stroke-linecap: round;" d="M 55.569 5.28 C 55.562 4.821 20.354 5.857 20.311 5.28 L 5.199 143.672 L 49.524 143.672"></path>
  <polyline style="fill: none; stroke: rgb(119, 210, 255); stroke-linejoin: round; stroke-linecap: round;" points="108.626 5.28 68.665 5.28 60.205 134.507"></polyline>
  <polyline style="fill: none; stroke: rgb(119, 210, 255); stroke-linejoin: round; stroke-linecap: round;" points="102.077 143.672 65.978 143.672 71.108 74.661 102.841 75.732"></polyline>
  <line style="fill: none; stroke: rgb(119, 210, 255); stroke-linejoin: round; stroke-linecap: round;" x1="121.889" y1="5.28" x2="114.399" y2="137.043"></line>
  <polyline style="fill: none; stroke: rgb(119, 210, 255); stroke-linejoin: round; stroke-linecap: round;" points="124.81 75.585 120.713 143.672 154.965 143.672"></polyline>
  <polyline style="fill: none; stroke: rgb(119, 210, 255); stroke-linejoin: round; stroke-linecap: round;" points="209.028 5.28 169.236 5.28 161.745 138.578"></polyline>
  <polyline style="fill: none; stroke: rgb(119, 210, 255); stroke-linejoin: round; stroke-linecap: round;" points="202.481 143.672 168.663 145.774 172.442 77.862 201.688 77.093"></polyline>
  <polyline style="fill: none; stroke: rgb(119, 210, 255); stroke-linejoin: round; stroke-linecap: round;" points="259.559 4.753 222.122 5.017 215.945 75.998 247.894 76.01"></polyline>
  <polyline style="fill: none; stroke: rgb(119, 210, 255); stroke-linejoin: round; stroke-linecap: round;" points="224.889 67.013 256.345 67.65 252.626 144.199 217.928 143.672"></polyline>
  <line style="fill: none; stroke: rgb(119, 210, 255); stroke-linejoin: round; stroke-linecap: round;" x1="269.809" y1="5.28" x2="326.391" y2="5.28"></line>
  <polyline style="fill: none; stroke: rgb(119, 210, 255); stroke-linejoin: round; stroke-linecap: round;" points="276.47 12.427 297.438 12.981 292.795 142.6"></polyline>
  <line style="fill: none; stroke: rgb(119, 210, 255); stroke-linejoin: round; stroke-linecap: round;" x1="337.304" y1="5.28" x2="330.949" y2="143.672"></line>
  <polyline style="fill: none; stroke: rgb(119, 210, 255); stroke-linejoin: round; stroke-linecap: round;" points="342.896 65.303 345.825 5.54 374.243 5.28 371.724 69.066 359.242 69.59"></polyline>
  <polyline style="fill: none; stroke: rgb(119, 210, 255); stroke-linejoin: round; stroke-linecap: round;" points="370.401 76.234 344.493 76.147 376.76 143.62"></polyline>
  <polyline style="fill: none; stroke: rgb(119, 210, 255); stroke-linejoin: round; stroke-linecap: round;" points="387.924 16.052 387.855 143.408 425.667 143.935 425.743 16.902"></polyline>
  <polyline style="fill: none; stroke: rgb(119, 210, 255); stroke-linejoin: round; stroke-linecap: round;" points="394.588 131.635 394.397 5.54 433.189 5.54 433.69 134.892"></polyline>
  <polyline style="fill: none; stroke: rgb(119, 210, 255); stroke-linejoin: round; stroke-linecap: round;" points="485.346 106.63 446.535 5.28 444.522 144.724"></polyline>
  <polyline style="fill: none; stroke: rgb(119, 210, 255); stroke-linejoin: round; stroke-linecap: round;" points="453.709 41.822 491.771 143.672 493.484 5.54"></polyline>
  <path style="fill: none; stroke: rgba(119, 210, 255, 0.45); stroke-width: 5px; stroke-linejoin: round; stroke-linecap: round;" d="M 54.332 6.187 C 54.325 5.728 19.12 6.764 19.075 6.187 L 3.965 144.579 L 48.288 144.579"></path>
  <polyline style="fill: none; stroke: rgba(119, 210, 255, 0.45); stroke-width: 5px; stroke-linejoin: round; stroke-linecap: round;" points="107.384 6.187 67.426 6.187 58.967 135.414"></polyline>
  <polyline style="fill: none; stroke: rgba(119, 210, 255, 0.45); stroke-width: 5px; stroke-linejoin: round; stroke-linecap: round;" points="100.837 144.579 64.739 144.579 69.869 75.568 101.601 76.639"></polyline>
  <line style="fill: none; stroke: rgba(119, 210, 255, 0.45); stroke-width: 5px; stroke-linejoin: round; stroke-linecap: round;" x1="120.647" y1="6.187" x2="113.159" y2="137.95"></line>
  <polyline style="fill: none; stroke: rgba(119, 210, 255, 0.45); stroke-width: 5px; stroke-linejoin: round; stroke-linecap: round;" points="123.568 76.492 119.472 144.579 153.721 144.579"></polyline>
  <polyline style="fill: none; stroke: rgba(119, 210, 255, 0.45); stroke-width: 5px; stroke-linejoin: round; stroke-linecap: round;" points="207.782 6.187 167.993 6.187 160.502 139.485"></polyline>
  <polyline style="fill: none; stroke: rgba(119, 210, 255, 0.45); stroke-width: 5px; stroke-linejoin: round; stroke-linecap: round;" points="201.233 144.579 167.417 146.681 171.196 78.767 200.441 78"></polyline>
  <polyline style="fill: none; stroke: rgba(119, 210, 255, 0.45); stroke-width: 5px; stroke-linejoin: round; stroke-linecap: round;" points="258.309 5.66 220.873 5.924 214.696 76.905 246.644 76.917"></polyline>
  <polyline style="fill: none; stroke: rgba(119, 210, 255, 0.45); stroke-width: 5px; stroke-linejoin: round; stroke-linecap: round;" points="223.64 67.92 255.094 68.557 251.376 145.106 216.679 144.579"></polyline>
  <line style="fill: none; stroke: rgba(119, 210, 255, 0.45); stroke-width: 5px; stroke-linejoin: round; stroke-linecap: round;" x1="268.556" y1="6.187" x2="325.135" y2="6.187"></line>
  <polyline style="fill: none; stroke: rgba(119, 210, 255, 0.45); stroke-width: 5px; stroke-linejoin: round; stroke-linecap: round;" points="275.217 13.355 296.184 13.911 291.541 143.528"></polyline>
  <line style="fill: none; stroke: rgba(119, 210, 255, 0.45); stroke-width: 5px; stroke-linejoin: round; stroke-linecap: round;" x1="336.046" y1="6.187" x2="329.692" y2="144.579"></line>
  <polyline style="fill: none; stroke: rgba(119, 210, 255, 0.45); stroke-width: 5px; stroke-linejoin: round; stroke-linecap: round;" points="341.639 66.21 344.568 6.448 372.982 6.187 370.465 69.973 357.984 70.497"></polyline>
  <polyline style="fill: none; stroke: rgba(119, 210, 255, 0.45); stroke-width: 5px; stroke-linejoin: round; stroke-linecap: round;" points="369.141 77.193 343.237 77.106 375.501 144.579"></polyline>
  <polyline style="fill: none; stroke: rgba(119, 210, 255, 0.45); stroke-width: 5px; stroke-linejoin: round; stroke-linecap: round;" points="386.663 16.96 386.596 144.315 424.403 144.842 424.481 17.809"></polyline>
  <polyline style="fill: none; stroke: rgba(119, 210, 255, 0.45); stroke-width: 5px; stroke-linejoin: round; stroke-linecap: round;" points="393.328 132.542 393.136 6.448 431.926 6.448 432.425 135.799"></polyline>
  <polyline style="fill: none; stroke: rgba(119, 210, 255, 0.45); stroke-width: 5px; stroke-linejoin: round; stroke-linecap: round;" points="484.078 107.537 445.27 6.187 443.257 145.631"></polyline>
  <polyline style="fill: none; stroke: rgba(119, 210, 255, 0.45); stroke-width: 5px; stroke-linejoin: round; stroke-linecap: round;" points="452.443 42.729 490.504 144.579 492.216 6.448"></polyline>
</svg>